<svg width="17" height="17" viewBox="0 0 17 17" fill="none" xmlns="http://www.w3.org/2000/svg">
<path d="M15.6842 8.03854C15.205 7.55055 15.0981 6.80915 15.4201 6.20554C15.6499 5.77536 15.6661 5.26384 15.4631 4.81954C15.2608 4.37591 14.8628 4.05192 14.3869 3.94438C13.7208 3.79314 13.2295 3.22718 13.175 2.5456C13.1354 2.05962 12.8719 1.61935 12.4612 1.35587C12.0518 1.0917 11.5423 1.03457 11.0832 1.20194C10.4407 1.43518 9.72144 1.22345 9.30739 0.680339C9.01163 0.293172 8.55187 0.0653076 8.06388 0.0653076C7.57656 0.0653076 7.1168 0.293172 6.82104 0.680339C6.40901 1.22412 5.68979 1.43585 5.0472 1.20261C4.58878 1.03591 4.07928 1.09305 3.66926 1.35654C3.25924 1.62003 2.99507 2.0603 2.95609 2.54627C2.90097 3.22785 2.41029 3.79448 1.74417 3.94505C1.26828 4.05259 0.870357 4.37658 0.668035 4.82021C0.465713 5.26384 0.481845 5.77603 0.711726 6.20554C1.03369 6.80847 0.926819 7.55055 0.448237 8.03854C0.106104 8.38605 -0.0538714 8.87337 0.0153617 9.35598C0.0845948 9.8386 0.375643 10.2614 0.801796 10.4987C1.39868 10.8314 1.71056 11.5136 1.57075 12.1824C1.47195 12.6597 1.60033 13.1557 1.91961 13.5241C2.23956 13.8931 2.71276 14.0914 3.19807 14.0605C3.88099 14.0181 4.51081 14.4234 4.75548 15.0613C4.92957 15.5171 5.30665 15.8646 5.77515 16.0017C6.24231 16.1388 6.74778 16.0501 7.14032 15.7617C7.69083 15.3564 8.44164 15.3564 8.99147 15.7617C9.38401 16.0508 9.88948 16.1395 10.3566 16.0017C10.8251 15.8646 11.2022 15.5164 11.377 15.0613C11.621 14.4234 12.2515 14.0175 12.9337 14.0605C13.4204 14.0914 13.8929 13.8931 14.2122 13.5241C14.5315 13.1557 14.6605 12.6597 14.561 12.1824C14.4219 11.5136 14.7331 10.8314 15.3307 10.4987C15.7561 10.2607 16.0465 9.8386 16.1164 9.35598C16.1863 8.87337 16.0257 8.38605 15.6842 8.03854V8.03854ZM7.22569 11.6884L4.20094 8.75507L5.44915 7.50685L7.22569 9.1913L11.0187 5.30349L12.2669 6.55171L7.22569 11.6884Z" fill="#F8765E"/>
</svg>
